# xmcd CD database file
#
# Track frame offsets:
#	150
#	12030
#	25529
#	37492
#	49731
#	63211
#	74604
#	85608
#	97984
#	108106
#	124547
#	135779
#	148451
#	160255
#	174684
#	185171
#	196474
#	208590
#	228787
#	240999
#
# Disc length: 3346 seconds
#
# Revision: 0
# Processed by: cddbd v1.5.1PL2 Copyright (c) Steve Scherf et al.
# Submitted via: CDex 1.50
#
DISCID=0b0d1014
DTITLE=Various Artist - Best of Country Ladies CD 4
DYEAR=1900
DGENRE=Country
TTITLE0=Gail Davies - I'll Be Your Baby
TTITLE1=Anne Murray - Another Sleepless Night
TTITLE2=Connie Smith - Once A Day
TTITLE3=Kitty Wells - Password
TTITLE4=Jennifer Weatherly - In The Name Of Love
TTITLE5=Barbara Mandrell - WeÄve Got Everything But Love
TTITLE6=Dottie West - A Lesson In Leavin'
TTITLE7=Gail Davies - Settin' Me Up
TTITLE8=Patsy Cline - Pick Me Up On Your Way Down
TTITLE9=Barbara Fairchild - Love Is Looking In Someones
TTITLE10=Barbara Mandrell - Just A Pickin'
TTITLE11=Anne Murray - All The Time
TTITLE12=Barbara Mandrell/D. Houston - Lovin' You Is worth It
TTITLE13=Gail Davies - Good Lovin' Man
TTITLE14=Tammy Wynette - Another Chance
TTITLE15=Barbara Fairchild - Chaetin' Is
TTITLE16=Billie Joe Spears - Look What They've Done To My Song
TTITLE17=Emmylou Harris - Love Hurts
TTITLE18=Loretta Lynn - Blue Kentucky Girl
TTITLE19=Barbara Mandrell - Kaw-Liga
EXTD=
EXTT0=
EXTT1=
EXTT2=
EXTT3=
EXTT4=
EXTT5=
EXTT6=
EXTT7=
EXTT8=
EXTT9=
EXTT10=
EXTT11=
EXTT12=
EXTT13=
EXTT14=
EXTT15=
EXTT16=
EXTT17=
EXTT18=
EXTT19=
PLAYORDER=
